<svg width="92" height="101" viewBox="0 0 92 101" fill="none" xmlns="http://www.w3.org/2000/svg">
<path d="M83.375 12.625C88.1367 12.625 92 16.8642 92 22.0938C92 25.0725 90.7242 27.8736 88.55 29.6687L49.45 61.8625C47.4016 63.5393 44.5984 63.5393 42.55 61.8625L3.45 29.6687C1.27812 27.8736 0 25.0725 0 22.0938C0 16.8642 3.86148 12.625 8.625 12.625H83.375ZM39.1 66.9125C43.1969 70.2857 48.8031 70.2857 52.9 66.9125L92 34.7188V75.75C92 82.7135 86.843 88.375 80.5 88.375H11.5C5.14805 88.375 0 82.7135 0 75.75V34.7188L39.1 66.9125Z" fill="#FF4F4F"/>
</svg>
