<svg width="92" height="101" viewBox="0 0 92 101" fill="none" xmlns="http://www.w3.org/2000/svg">
<path d="M30.7718 78.3934C30.7718 78.7879 30.3452 79.1035 29.8073 79.1035C29.1952 79.1627 28.7685 78.8471 28.7685 78.3934C28.7685 77.9988 29.1952 77.6832 29.7331 77.6832C30.2895 77.624 30.7718 77.9396 30.7718 78.3934ZM25.0032 77.5057C24.8734 77.9002 25.2444 78.3539 25.8008 78.4723C26.2831 78.6695 26.8395 78.4723 26.9508 78.0777C27.0621 77.6832 26.7097 77.2295 26.1532 77.052C25.671 76.9139 25.1331 77.1111 25.0032 77.5057ZM33.2016 77.1703C32.6637 77.3084 32.2927 77.6832 32.3484 78.1369C32.404 78.5314 32.8863 78.7879 33.4427 78.6498C33.9806 78.5117 34.3516 78.1369 34.296 77.7424C34.2403 77.3676 33.7395 77.1111 33.2016 77.1703ZM45.4065 1.57812C19.6798 1.57812 0 22.3502 0 49.7109C0 71.5877 12.9468 90.3082 31.4395 96.8969C33.8137 97.3506 34.6484 95.7922 34.6484 94.51C34.6484 93.2869 34.5927 86.5404 34.5927 82.3979C34.5927 82.3979 21.6089 85.3568 18.8823 76.5193C18.8823 76.5193 16.7677 70.7789 13.7258 69.2994C13.7258 69.2994 9.47823 66.2023 14.0226 66.2615C14.0226 66.2615 18.6411 66.6561 21.1823 71.351C25.2444 78.9654 32.0516 76.7758 34.704 75.4738C35.1306 72.3176 36.3363 70.1279 37.6718 68.826C27.3032 67.6029 16.8419 66.0051 16.8419 47.0281C16.8419 41.6033 18.2516 38.8811 21.2194 35.4092C20.7371 34.127 19.1605 28.8402 21.7016 22.0148C25.5782 20.7326 34.5 27.341 34.5 27.341C38.2097 26.2363 42.1976 25.6643 46.1484 25.6643C50.0992 25.6643 54.0871 26.2363 57.7968 27.341C57.7968 27.341 66.7186 20.7129 70.5952 22.0148C73.1363 28.86 71.5597 34.127 71.0774 35.4092C74.0452 38.9008 75.8629 41.623 75.8629 47.0281C75.8629 66.0643 64.9379 67.5832 54.5694 68.826C56.2758 70.3844 57.7226 73.3434 57.7226 77.9791C57.7226 84.627 57.6669 92.8529 57.6669 94.4705C57.6669 95.7527 58.5202 97.3111 60.8758 96.8574C79.4242 90.3082 92 71.5877 92 49.7109C92 22.3502 71.1331 1.57812 45.4065 1.57812ZM18.029 69.615C17.7879 69.8123 17.8435 70.266 18.1589 70.6408C18.4556 70.9564 18.8823 71.0945 19.1234 70.8381C19.3645 70.6408 19.3089 70.1871 18.9935 69.8123C18.6968 69.4967 18.2702 69.3586 18.029 69.615ZM16.0258 68.0172C15.896 68.2736 16.0815 68.5893 16.4524 68.7865C16.7492 68.9838 17.1202 68.9246 17.25 68.6484C17.3798 68.392 17.1944 68.0764 16.8234 67.8791C16.4524 67.7607 16.1556 67.8199 16.0258 68.0172ZM22.0355 75.0398C21.7387 75.2963 21.85 75.8881 22.2766 76.2629C22.7032 76.7166 23.2411 76.7758 23.4823 76.4602C23.7234 76.2037 23.6121 75.6119 23.2411 75.2371C22.8331 74.7834 22.2766 74.7242 22.0355 75.0398ZM19.921 72.14C19.6242 72.3373 19.6242 72.8502 19.921 73.3039C20.2177 73.7576 20.7185 73.9549 20.9597 73.7576C21.2565 73.5012 21.2565 72.9883 20.9597 72.5346C20.7 72.0809 20.2177 71.8836 19.921 72.14Z" fill="#F2E3E3"/>
</svg>
