<svg width="92" height="101" viewBox="0 0 92 101" fill="none" xmlns="http://www.w3.org/2000/svg">
<path d="M85.4286 6.3125H6.55089C2.93661 6.3125 0 9.17285 0 12.6842V88.3158C0 91.8271 2.93661 94.6875 6.55089 94.6875H85.4286C89.0429 94.6875 92 91.8271 92 88.3158V12.6842C92 9.17285 89.0429 6.3125 85.4286 6.3125ZM27.8054 82.0625H14.1696V39.8871H27.8259V82.0625H27.8054ZM20.9875 34.127C16.6134 34.127 13.0813 30.7143 13.0813 26.5322C13.0813 22.3502 16.6134 18.9375 20.9875 18.9375C25.3411 18.9375 28.8938 22.3502 28.8938 26.5322C28.8938 30.734 25.3616 34.127 20.9875 34.127ZM78.9187 82.0625H65.283V61.5469C65.283 56.6547 65.1804 50.3619 58.1982 50.3619C51.0929 50.3619 50.0045 55.6881 50.0045 61.1918V82.0625H36.3688V39.8871H49.45V45.6473H49.6348C51.4625 42.3332 55.9188 38.8416 62.5518 38.8416C76.3518 38.8416 78.9187 47.5805 78.9187 58.943V82.0625Z" fill="#0697E9"/>
</svg>
