<svg width="45" height="45" viewBox="0 0 45 45" fill="none" xmlns="http://www.w3.org/2000/svg">
<path d="M22.5 44.6484C21.827 44.6484 21.144 44.4902 20.5513 44.1914L14.3538 40.9834C13.4297 40.5264 13.8817 40.3682 14.183 40.2803C15.4185 39.9024 15.6696 39.8232 16.9855 39.1641C17.1261 39.0938 17.3069 39.1201 17.4475 39.1992L22.2087 41.669C22.3795 41.7568 22.6205 41.7568 22.7812 41.669L41.3337 32.2998C41.5044 32.2119 41.6149 32.0361 41.6149 31.8604V13.1221C41.6149 12.9375 41.5044 12.7705 41.3236 12.6738L22.7812 3.31348C22.6105 3.22559 22.3795 3.22559 22.2087 3.31348L3.67634 12.6826C3.49553 12.7705 3.38504 12.9463 3.38504 13.1309V31.8604C3.38504 32.0361 3.49553 32.2119 3.67634 32.291L8.75893 34.8574C11.5212 36.0615 13.2087 34.6465 13.2087 33.2139V14.7217C13.2087 14.458 13.4498 14.2559 13.7511 14.2559H16.1016C16.3929 14.2559 16.644 14.458 16.644 14.7217V33.2227C16.644 36.4395 14.635 38.2852 11.1496 38.2852C10.0748 38.2852 9.23102 38.2852 6.88058 37.2656L2.01897 34.8135C0.813616 34.207 0.0703125 33.0732 0.0703125 31.8516V13.1221C0.0703125 11.9092 0.813616 10.7666 2.01897 10.1602L20.5513 0.791016C21.7266 0.210937 23.2835 0.210937 24.4487 0.791016L43.0011 10.1689C44.2065 10.7754 44.9498 11.9092 44.9498 13.1309V31.8604C44.9498 33.0732 44.2065 34.207 43.0011 34.8223L24.4487 44.1914C23.856 44.4902 23.183 44.6484 22.5 44.6484ZM37.4766 26.1826C37.4766 22.6758 34.7645 21.7441 29.0692 21.085C23.3036 20.417 22.721 20.0742 22.721 18.8965C22.721 17.9209 23.2132 16.6201 27.4821 16.6201C31.2891 16.6201 32.6953 17.3408 33.2779 19.5908C33.3281 19.8018 33.5491 19.96 33.8002 19.96H36.2109C36.3616 19.96 36.5022 19.9072 36.6027 19.8105C36.7031 19.7139 36.7533 19.582 36.7433 19.4502C36.3716 15.5742 33.4286 13.7725 27.4821 13.7725C22.1886 13.7725 19.0346 15.7236 19.0346 19.002C19.0346 22.5527 22.1786 23.5371 27.2511 23.9766C33.3281 24.4951 33.8002 25.2773 33.8002 26.3232C33.8002 28.1338 32.1328 28.9072 28.2254 28.9072C23.3136 28.9072 22.2388 27.8262 21.8772 25.6904C21.837 25.4619 21.6161 25.2949 21.3449 25.2949H18.9442C18.6429 25.2949 18.4118 25.5059 18.4118 25.7607C18.4118 28.4941 20.1094 31.7549 28.2355 31.7549C34.1016 31.7461 37.4766 29.7158 37.4766 26.1826Z" fill="#42A606"/>
</svg>
