<svg width="45" height="45" viewBox="0 0 45 45" fill="none" xmlns="http://www.w3.org/2000/svg">
<g clip-path="url(#clip0_9_210)">
<path d="M44.1512 20.7465L24.5089 3.55513C23.9651 3.07976 23.2279 2.81274 22.4593 2.81274C21.6906 2.81274 20.9534 3.07976 20.4097 3.55513L16.3255 7.12612L21.5005 11.6542C24.2186 10.8509 26.792 13.1282 25.8589 15.4933L30.8471 19.858C34.2853 18.8208 36.9924 22.5826 34.4099 24.8405C31.7491 27.1687 27.3575 24.5882 28.7849 21.5586L24.1292 17.4902V28.1997C26.6705 29.3018 26.3651 31.8779 25.0413 33.0336C24.3944 33.5993 23.5174 33.917 22.6029 33.917C21.6884 33.917 20.8114 33.5993 20.1646 33.0336C18.3997 31.4868 19.0526 28.9107 21.2946 28.1118V17.3012C19.2053 16.5533 18.8236 14.5995 19.4223 13.3461L14.3206 8.8769L0.84873 20.6665C0.305213 21.1422 -0.00012207 21.7873 -0.00012207 22.46C-0.00012207 23.1326 0.305213 23.7777 0.84873 24.2534L20.4971 41.4448C21.0406 41.9201 21.7777 42.1871 22.5462 42.1871C23.3146 42.1871 24.0517 41.9201 24.5953 41.4448L44.1512 24.3333C44.6947 23.8577 45 23.2126 45 22.5399C45 21.8673 44.6947 21.2222 44.1512 20.7465Z" fill="#710000"/>
</g>
<defs>
<clipPath id="clip0_9_210">
<rect width="45" height="45" fill="white"/>
</clipPath>
</defs>
</svg>
